<svg xmlns="http://www.w3.org/2000/svg" viewBox="0 0 640 360">
  <defs>
    <radialGradient id="space" cx="50%" cy="50%" r="70%">
      <stop offset="0" stop-color="#0d1b2a"/>
      <stop offset="1" stop-color="#000814"/>
    </radialGradient>
  </defs>
  <rect width="640" height="360" fill="url(#space)"/>
  <!-- Stars -->
  <g fill="#e0fbfc">
    <circle cx="40" cy="40" r="1.5"/>
    <circle cx="120" cy="60" r="1.2"/>
    <circle cx="200" cy="40" r="1.4"/>
    <circle cx="300" cy="50" r="1.5"/>
    <circle cx="380" cy="35" r="1.3"/>
    <circle cx="460" cy="60" r="1.6"/>
    <circle cx="560" cy="40" r="1.2"/>
    <circle cx="600" cy="80" r="1.4"/>
    <circle cx="70" cy="120" r="1.3"/>
    <circle cx="520" cy="120" r="1.4"/>
    <circle cx="340" cy="90" r="1.2"/>
    <circle cx="250" cy="140" r="1.4"/>
  </g>
  <!-- Planets -->
  <circle cx="120" cy="220" r="42" fill="#ffba08"/>
  <circle cx="300" cy="200" r="30" fill="#a8dadc"/>
  <circle cx="380" cy="250" r="22" fill="#ffadad"/>
  <circle cx="470" cy="210" r="48" fill="#6c757d"/>
  <!-- Saturn ring -->
  <ellipse cx="470" cy="210" rx="80" ry="18" fill="none" stroke="#cfd8dc" stroke-width="4"/>
  <!-- Moon -->
  <circle cx="220" cy="280" r="14" fill="#dee2e6"/>
  <!-- Rocket -->
  <g transform="translate(520,270)">
    <path d="M0 0l24 -12 12 24 -24 12z" fill="#e63946"/>
    <path d="M24 -12l32 8 -8 32 -32 -8z" fill="#fff" stroke="#adb5bd"/>
    <circle cx="40" cy="4" r="6" fill="#48cae4"/>
    <path d="M-4 6l10 2-8 8z" fill="#ff6b6b"/>
  </g>
  <!-- Labels -->
  <text x="24" y="325" font-family="Nunito, Arial, sans-serif" font-size="18" fill="#cde7f0">Exploring Planets</text>
</svg>
