<svg width="14" height="24" viewBox="0 0 14 24" fill="none" xmlns="http://www.w3.org/2000/svg">
<g id="Group 4886">
<g id="Group 4885">
<path id="Subtract" fill-rule="evenodd" clip-rule="evenodd" d="M3.18169 18.8634L12.2667 23.5H14V0.5H12.2667L3.00833 5.81567C1.76604 6.52893 1 7.85207 1 9.28457V15.3006C1 16.8038 1.84278 18.1801 3.18169 18.8634ZM8 15.0185C9.65685 15.0185 11 13.6754 11 12.0185C11 10.3617 9.65685 9.01852 8 9.01852C6.34315 9.01852 5 10.3617 5 12.0185C5 13.6754 6.34315 15.0185 8 15.0185Z" fill="#FFE47F"/>
<path id="Vector 26" d="M14 0.5H13.3333C12.6344 0.5 11.9477 0.683113 11.3416 1.0311L3.00833 5.81567C1.76604 6.52893 1 7.85207 1 9.28457V15.3006C1 16.8038 1.84278 18.1801 3.18169 18.8634L11.4101 23.0628C11.9731 23.3502 12.5962 23.5 13.2284 23.5H14" stroke="#FFD229"/>
</g>
<circle id="Ellipse 101" cx="8" cy="12.0185" r="2.5" stroke="#FFD229"/>
</g>
</svg>
