<svg xmlns="http://www.w3.org/2000/svg" viewBox="0 0 640 360">
  <defs>
    <linearGradient id="g" x1="0" y1="0" x2="1" y2="1">
      <stop offset="0" stop-color="#f2faf7"/>
      <stop offset="1" stop-color="#d8efe5"/>
    </linearGradient>
  </defs>
  <rect width="640" height="360" fill="url(#g)"/>
  <g fill="none" stroke="#2b7a68" stroke-width="4" stroke-linecap="round" stroke-linejoin="round">
    <!-- Typewriter -->
    <rect x="60" y="190" width="160" height="70" rx="10"/>
    <rect x="80" y="170" width="120" height="30" rx="6"/>
    <circle cx="95" cy="225" r="6"/>
    <circle cx="115" cy="225" r="6"/>
    <circle cx="135" cy="225" r="6"/>
    <circle cx="155" cy="225" r="6"/>

    <!-- Arrow to laptop -->
    <path d="M230 225h60"/>
    <path d="M280 215l10 10-10 10"/>

    <!-- Laptop -->
    <rect x="300" y="210" width="120" height="70" rx="8"/>
    <rect x="315" y="150" width="90" height="60" rx="6"/>
    <line x1="315" y1="200" x2="405" y2="200"/>

    <!-- Old phone to mobile -->
    <rect x="70" y="70" width="70" height="40" rx="6"/>
    <circle cx="105" cy="120" r="20"/>
    <path d="M140 100h60"/>
    <path d="M190 90l10 10-10 10"/>
    <rect x="210" y="70" width="55" height="95" rx="10"/>
    <circle cx="238" cy="150" r="6"/>

    <!-- Film camera to digital camera -->
    <rect x="460" y="70" width="65" height="45" rx="6"/>
    <rect x="430" y="80" width="40" height="25" rx="5"/>
    <circle cx="495" cy="92" r="10"/>
    <path d="M420 120h-40"/>
    <path d="M380 110l-10 10 10 10"/>
    <rect x="300" y="95" width="70" height="45" rx="8"/>
    <circle cx="335" cy="118" r="12"/>

    <!-- CD to streaming -->
    <circle cx="520" cy="230" r="24"/>
    <circle cx="520" cy="230" r="6"/>
    <path d="M545 230h35"/>
    <path d="M570 220l10 10-10 10"/>
    <path d="M585 210c20 10 20 30 0 40"/>
    <path d="M600 200c35 20 35 50 0 70"/>
  </g>
  <text x="20" y="340" font-family="Nunito, Arial, sans-serif" font-size="18" fill="#2b7a68">Old Inventions → New Ideas</text>
</svg>
